<svg xmlns="http://www.w3.org/2000/svg" xmlns:xlink="http://www.w3.org/1999/xlink" width="500" zoomAndPan="magnify" viewBox="0 0 375 374.999991" height="500" preserveAspectRatio="xMidYMid meet" version="1.2"><defs><clipPath id="d4c21cda0d"><path d="M 112.5 121.195312 L 262.5 121.195312 L 262.5 240.445312 L 112.5 240.445312 Z M 112.5 121.195312 "/></clipPath><clipPath id="5be29b01cb"><path d="M 2.375 3.886719 L 373 3.886719 L 373 371.328125 L 2.375 371.328125 Z M 2.375 3.886719 "/></clipPath><clipPath id="cf30ed70c1"><path d="M 185.691406 3.886719 C 206.402344 3.996094 215.449219 30.414062 233.0625 35.519531 C 250.347656 40.535156 271.769531 22.933594 286.960938 32.570312 C 304.320312 43.859375 297.664062 70.980469 309.714844 84.800781 C 321.546875 98.367188 349.078125 95.144531 356.65625 111.476562 C 365.15625 130.367188 344.90625 149.578125 347.570312 167.726562 C 350.191406 185.542969 375.089844 197.71875 372.644531 215.550781 C 369.59375 236.039062 342.164062 241.246094 334.605469 257.953125 C 327.183594 274.351562 341.554688 298.074219 329.859375 311.746094 C 316.214844 327.332031 290.332031 316.882812 274.9375 326.847656 C 259.832031 336.632812 259.101562 364.355469 241.863281 369.535156 C 221.96875 375.261719 205.84375 352.472656 187.507812 352.535156 C 169.511719 352.597656 153.917969 375.519531 136.625 370.558594 C 116.792969 364.621094 115.539062 336.714844 100.082031 326.847656 C 84.914062 317.164062 59.40625 328.015625 47.535156 314.488281 C 34.058594 298.757812 48.082031 274.613281 40.414062 257.953125 C 32.878906 241.601562 5.5625 236.933594 2.886719 219.128906 C 0.046875 198.613281 24.898438 185.878906 27.445312 167.71875 C 29.949219 149.886719 9.488281 131.1875 16.855469 114.765625 C 25.558594 95.964844 53.34375 98.707031 65.292969 84.800781 C 77.027344 71.15625 69.921875 44.351562 85 34.523438 C 102.472656 23.417969 124.371094 40.746094 141.945312 35.519531 C 159.183594 30.394531 167.695312 4.003906 185.691406 3.886719 "/></clipPath><linearGradient x1="36.124205" gradientTransform="matrix(0.913075,0,0,0.913483,-40.540534,-40.792629)" y1="438.681619" x2="465.995565" gradientUnits="userSpaceOnUse" y2="63.812342" id="f36566b326"><stop style="stop-color:#1a85f8;stop-opacity:1;" offset="0"/><stop style="stop-color:#1a85f8;stop-opacity:1;" offset="0.125"/><stop style="stop-color:#1a85f8;stop-opacity:1;" offset="0.140625"/><stop style="stop-color:#1a86f8;stop-opacity:1;" offset="0.148438"/><stop style="stop-color:#1a87f8;stop-opacity:1;" offset="0.15625"/><stop style="stop-color:#1b88f8;stop-opacity:1;" offset="0.164062"/><stop style="stop-color:#1b89f8;stop-opacity:1;" offset="0.171875"/><stop style="stop-color:#1b8af8;stop-opacity:1;" offset="0.179687"/><stop style="stop-color:#1b8bf9;stop-opacity:1;" offset="0.1875"/><stop style="stop-color:#1b8cf9;stop-opacity:1;" offset="0.195312"/><stop style="stop-color:#1c8df9;stop-opacity:1;" offset="0.203125"/><stop style="stop-color:#1c8ef9;stop-opacity:1;" offset="0.210937"/><stop style="stop-color:#1c8ff9;stop-opacity:1;" offset="0.21875"/><stop style="stop-color:#1c90f9;stop-opacity:1;" offset="0.226562"/><stop style="stop-color:#1d91f9;stop-opacity:1;" offset="0.234375"/><stop style="stop-color:#1d92f9;stop-opacity:1;" offset="0.242188"/><stop style="stop-color:#1d93f9;stop-opacity:1;" offset="0.25"/><stop style="stop-color:#1d94f9;stop-opacity:1;" offset="0.257812"/><stop style="stop-color:#1d95f9;stop-opacity:1;" offset="0.265625"/><stop style="stop-color:#1e96f9;stop-opacity:1;" offset="0.273438"/><stop style="stop-color:#1e97fa;stop-opacity:1;" offset="0.28125"/><stop style="stop-color:#1e98fa;stop-opacity:1;" offset="0.289062"/><stop style="stop-color:#1e99fa;stop-opacity:1;" offset="0.296875"/><stop style="stop-color:#1f9afa;stop-opacity:1;" offset="0.304688"/><stop style="stop-color:#1f9bfa;stop-opacity:1;" offset="0.3125"/><stop style="stop-color:#1f9cfa;stop-opacity:1;" offset="0.320312"/><stop style="stop-color:#1f9dfa;stop-opacity:1;" offset="0.328125"/><stop style="stop-color:#1f9efa;stop-opacity:1;" offset="0.335937"/><stop style="stop-color:#209ffa;stop-opacity:1;" offset="0.34375"/><stop style="stop-color:#20a0fa;stop-opacity:1;" offset="0.351562"/><stop style="stop-color:#20a1fa;stop-opacity:1;" offset="0.359375"/><stop style="stop-color:#20a2fa;stop-opacity:1;" offset="0.367188"/><stop style="stop-color:#21a3fa;stop-opacity:1;" offset="0.375"/><stop style="stop-color:#21a4fb;stop-opacity:1;" offset="0.382812"/><stop style="stop-color:#21a5fb;stop-opacity:1;" offset="0.390625"/><stop style="stop-color:#21a6fb;stop-opacity:1;" offset="0.398438"/><stop style="stop-color:#21a7fb;stop-opacity:1;" offset="0.40625"/><stop style="stop-color:#22a8fb;stop-opacity:1;" offset="0.414062"/><stop style="stop-color:#22a9fb;stop-opacity:1;" offset="0.421875"/><stop style="stop-color:#22aafb;stop-opacity:1;" offset="0.429687"/><stop style="stop-color:#22abfb;stop-opacity:1;" offset="0.4375"/><stop style="stop-color:#23acfb;stop-opacity:1;" offset="0.445313"/><stop style="stop-color:#23adfb;stop-opacity:1;" offset="0.453125"/><stop style="stop-color:#23aefb;stop-opacity:1;" offset="0.460938"/><stop style="stop-color:#23affb;stop-opacity:1;" offset="0.463514"/><stop style="stop-color:#23affc;stop-opacity:1;" offset="0.46875"/><stop style="stop-color:#23b0fc;stop-opacity:1;" offset="0.476562"/><stop style="stop-color:#24b0fc;stop-opacity:1;" offset="0.484375"/><stop style="stop-color:#24b1fc;stop-opacity:1;" offset="0.492188"/><stop style="stop-color:#24b2fc;stop-opacity:1;" offset="0.5"/><stop style="stop-color:#24b3fc;stop-opacity:1;" offset="0.507812"/><stop style="stop-color:#25b4fc;stop-opacity:1;" offset="0.515625"/><stop style="stop-color:#25b5fc;stop-opacity:1;" offset="0.523438"/><stop style="stop-color:#25b6fc;stop-opacity:1;" offset="0.53125"/><stop style="stop-color:#25b7fc;stop-opacity:1;" offset="0.536486"/><stop style="stop-color:#25b8fc;stop-opacity:1;" offset="0.539062"/><stop style="stop-color:#25b8fc;stop-opacity:1;" offset="0.546875"/><stop style="stop-color:#26b9fc;stop-opacity:1;" offset="0.554688"/><stop style="stop-color:#26bafc;stop-opacity:1;" offset="0.5625"/><stop style="stop-color:#26bbfd;stop-opacity:1;" offset="0.570312"/><stop style="stop-color:#26bcfd;stop-opacity:1;" offset="0.578125"/><stop style="stop-color:#27bdfd;stop-opacity:1;" offset="0.585938"/><stop style="stop-color:#27befd;stop-opacity:1;" offset="0.59375"/><stop style="stop-color:#27bffd;stop-opacity:1;" offset="0.601562"/><stop style="stop-color:#27c0fd;stop-opacity:1;" offset="0.609375"/><stop style="stop-color:#27c1fd;stop-opacity:1;" offset="0.617188"/><stop style="stop-color:#28c2fd;stop-opacity:1;" offset="0.625"/><stop style="stop-color:#28c3fd;stop-opacity:1;" offset="0.632812"/><stop style="stop-color:#28c4fd;stop-opacity:1;" offset="0.640625"/><stop style="stop-color:#28c5fd;stop-opacity:1;" offset="0.648437"/><stop style="stop-color:#29c6fd;stop-opacity:1;" offset="0.65625"/><stop style="stop-color:#29c7fd;stop-opacity:1;" offset="0.664062"/><stop style="stop-color:#29c8fe;stop-opacity:1;" offset="0.671875"/><stop style="stop-color:#29c9fe;stop-opacity:1;" offset="0.679688"/><stop style="stop-color:#29cafe;stop-opacity:1;" offset="0.6875"/><stop style="stop-color:#2acbfe;stop-opacity:1;" offset="0.695312"/><stop style="stop-color:#2accfe;stop-opacity:1;" offset="0.703125"/><stop style="stop-color:#2acdfe;stop-opacity:1;" offset="0.710938"/><stop style="stop-color:#2acefe;stop-opacity:1;" offset="0.71875"/><stop style="stop-color:#2bcffe;stop-opacity:1;" offset="0.726562"/><stop style="stop-color:#2bd0fe;stop-opacity:1;" offset="0.734375"/><stop style="stop-color:#2bd1fe;stop-opacity:1;" offset="0.742187"/><stop style="stop-color:#2bd2fe;stop-opacity:1;" offset="0.75"/><stop style="stop-color:#2bd3fe;stop-opacity:1;" offset="0.757812"/><stop style="stop-color:#2cd4ff;stop-opacity:1;" offset="0.765625"/><stop style="stop-color:#2cd5ff;stop-opacity:1;" offset="0.773438"/><stop style="stop-color:#2cd6ff;stop-opacity:1;" offset="0.78125"/><stop style="stop-color:#2cd7ff;stop-opacity:1;" offset="0.789062"/><stop style="stop-color:#2dd8ff;stop-opacity:1;" offset="0.796875"/><stop style="stop-color:#2dd9ff;stop-opacity:1;" offset="0.804688"/><stop style="stop-color:#2ddaff;stop-opacity:1;" offset="0.8125"/><stop style="stop-color:#2ddaff;stop-opacity:1;" offset="0.875"/><stop style="stop-color:#2ddaff;stop-opacity:1;" offset="1"/></linearGradient></defs><g id="9c8e5ae38a"><g clip-rule="nonzero" clip-path="url(#d4c21cda0d)"><path style=" stroke:none;fill-rule:nonzero;fill:#00d300;fill-opacity:1;" d="M 163.527344 240.464844 L 112.765625 174.53125 L 164.222656 200.882812 L 262.214844 121.195312 Z M 163.527344 240.464844 "/></g><g clip-rule="nonzero" clip-path="url(#5be29b01cb)"><g clip-rule="nonzero" clip-path="url(#cf30ed70c1)"><path style=" stroke:none;fill-rule:nonzero;fill:url(#f36566b326);" d="M 2.375 3.886719 L 2.375 371.328125 L 373.082031 371.328125 L 373.082031 3.886719 Z M 2.375 3.886719 "/></g></g><path style=" stroke:none;fill-rule:evenodd;fill:#ffffff;fill-opacity:1;" d="M 281.015625 109.117188 L 293.125 121.230469 C 294.859375 122.96875 294.859375 125.808594 293.125 127.554688 L 154.703125 266.039062 L 154.539062 266.203125 L 154.457031 266.273438 L 154.375 266.347656 L 154.28125 266.421875 L 154.101562 266.546875 L 154.007812 266.613281 L 153.917969 266.675781 L 153.824219 266.730469 L 153.734375 266.785156 L 153.632812 266.839844 L 153.535156 266.886719 L 153.433594 266.933594 L 153.332031 266.976562 L 153.230469 267.023438 L 153.121094 267.050781 L 153.023438 267.085938 L 152.921875 267.125 L 152.820312 267.160156 L 152.722656 267.1875 L 152.621094 267.214844 L 152.511719 267.242188 L 152.410156 267.261719 L 152.300781 267.28125 L 152.191406 267.296875 L 152.082031 267.308594 L 151.863281 267.324219 L 151.753906 267.335938 L 151.316406 267.335938 L 151.207031 267.324219 L 151.097656 267.316406 L 150.984375 267.308594 L 150.765625 267.269531 L 150.65625 267.253906 L 150.558594 267.234375 L 150.449219 267.207031 L 150.144531 267.125 L 150.046875 267.085938 L 149.84375 267.015625 L 149.746094 266.96875 L 149.644531 266.921875 L 149.542969 266.878906 L 149.441406 266.824219 L 149.34375 266.769531 C 149.277344 266.730469 149.214844 266.695312 149.152344 266.660156 C 148.867188 266.484375 148.601562 266.273438 148.355469 266.027344 L 136.25 253.914062 L 136.222656 253.886719 L 82.304688 199.945312 C 80.570312 198.210938 80.570312 195.371094 82.304688 193.625 L 94.410156 181.511719 C 96.148438 179.777344 98.988281 179.777344 100.730469 181.511719 L 151.542969 232.339844 L 274.699219 109.128906 C 276.433594 107.382812 279.28125 107.382812 281.015625 109.117188 "/></g></svg>