<svg xmlns="http://www.w3.org/2000/svg" xmlns:xlink="http://www.w3.org/1999/xlink" width="500" zoomAndPan="magnify" viewBox="0 0 375 374.999991" height="500" preserveAspectRatio="xMidYMid meet" version="1.2"><defs><clipPath id="7e389dd197"><path d="M 187.5 0 C 83.945312 0 0 83.945312 0 187.5 C 0 291.054688 83.945312 375 187.5 375 C 291.054688 375 375 291.054688 375 187.5 C 375 83.945312 291.054688 0 187.5 0 Z M 187.5 0 "/></clipPath></defs><g id="73e3c20a48"><g clip-rule="nonzero" clip-path="url(#7e389dd197)"><rect x="0" width="375" y="0" height="374.999991" style="fill:#0017ee;fill-opacity:1;stroke:none;"/></g><path style=" stroke:none;fill-rule:nonzero;fill:#ffffff;fill-opacity:1;" d="M 158.203125 63.066406 C 158.195312 62.699219 158.261719 62.347656 158.394531 62.007812 C 158.53125 61.667969 158.726562 61.367188 158.980469 61.105469 C 159.234375 60.839844 159.53125 60.636719 159.863281 60.492188 C 160.199219 60.347656 160.550781 60.273438 160.917969 60.265625 L 187.714844 59.859375 C 188.082031 59.851562 188.433594 59.914062 188.777344 60.050781 C 189.117188 60.183594 189.417969 60.378906 189.679688 60.632812 C 189.945312 60.890625 190.148438 61.183594 190.292969 61.519531 C 190.4375 61.855469 190.515625 62.207031 190.519531 62.574219 C 190.523438 62.9375 190.460938 63.292969 190.324219 63.632812 C 190.191406 63.972656 189.996094 64.273438 189.738281 64.535156 C 189.484375 64.800781 189.191406 65.003906 188.851562 65.148438 C 188.515625 65.292969 188.167969 65.367188 187.800781 65.371094 L 161 65.78125 L 160.957031 65.78125 C 160.597656 65.78125 160.246094 65.710938 159.914062 65.574219 C 159.578125 65.4375 159.28125 65.242188 159.023438 64.988281 C 158.765625 64.734375 158.566406 64.441406 158.421875 64.109375 C 158.28125 63.773438 158.207031 63.425781 158.203125 63.066406 Z M 166.582031 190.203125 C 166.582031 190.207031 166.582031 190.210938 166.582031 190.214844 C 166.574219 190.335938 166.5625 190.460938 166.539062 190.582031 C 166.394531 192.277344 166.824219 194.382812 168.328125 196.957031 C 181.667969 219.8125 207.105469 260.089844 214.910156 268.890625 C 215.15625 269.164062 215.339844 269.472656 215.460938 269.820312 C 215.582031 270.167969 215.632812 270.523438 215.613281 270.890625 C 215.59375 271.253906 215.5 271.605469 215.339844 271.933594 C 215.179688 272.265625 214.964844 272.550781 214.691406 272.796875 C 214.414062 273.039062 214.105469 273.21875 213.757812 273.339844 C 213.410156 273.460938 213.054688 273.507812 212.6875 273.484375 C 212.320312 273.460938 211.972656 273.371094 211.644531 273.207031 C 211.3125 273.046875 211.027344 272.824219 210.785156 272.550781 C 207.71875 269.09375 202.296875 261.371094 196.003906 251.863281 C 192.039062 256.871094 190.238281 262.304688 190.65625 268.0625 C 191.453125 278.949219 200.070312 289.195312 207.871094 295.148438 C 214.746094 300.402344 222.113281 303.492188 229.234375 306.484375 C 239.851562 310.945312 250.832031 315.554688 260.355469 327.191406 C 260.585938 327.476562 260.753906 327.792969 260.859375 328.144531 C 260.964844 328.492188 260.996094 328.847656 260.960938 329.210938 C 260.925781 329.578125 260.820312 329.917969 260.648438 330.242188 C 260.472656 330.5625 260.246094 330.839844 259.964844 331.070312 C 259.679688 331.300781 259.363281 331.46875 259.015625 331.574219 C 258.664062 331.683594 258.308594 331.714844 257.945312 331.679688 C 257.582031 331.644531 257.238281 331.539062 256.917969 331.367188 C 256.59375 331.195312 256.316406 330.96875 256.085938 330.6875 C 247.433594 320.109375 237.554688 315.960938 227.097656 311.570312 C 219.65625 308.445312 211.960938 305.214844 204.523438 299.535156 C 199.585938 295.777344 195.359375 291.347656 191.839844 286.242188 C 190.058594 283.652344 188.582031 280.902344 187.40625 277.988281 C 181.351562 278.078125 174.253906 278.105469 165.785156 278.066406 C 160.792969 278.042969 156.199219 278.097656 151.753906 278.152344 C 148.53125 278.1875 145.453125 278.226562 142.519531 278.226562 C 123.859375 278.226562 111.015625 276.75 102.671875 264.859375 C 95.597656 254.777344 95.484375 243.90625 95.367188 232.398438 C 95.34375 230.15625 95.316406 227.835938 95.238281 225.523438 C 94.550781 205.425781 94.179688 171.78125 93.816406 139.246094 C 93.726562 131.183594 93.636719 123.121094 93.542969 115.238281 C 93.519531 113.332031 93.476562 111.382812 93.433594 109.320312 C 93.089844 93.890625 92.667969 74.6875 101.46875 62.015625 C 110.703125 48.722656 125.335938 46.195312 139.535156 44.742188 C 157.109375 42.945312 170.246094 43.066406 193.054688 44.011719 C 194.386719 44.066406 195.679688 44.121094 196.9375 44.171875 C 223.320312 45.238281 235.359375 45.722656 243.328125 59.851562 C 249.332031 70.492188 249.925781 86.863281 249.671875 102.96875 C 249.472656 115.730469 249.625 133.921875 249.789062 153.183594 C 249.964844 174.226562 250.148438 195.988281 249.835938 210.355469 C 249.808594 211.527344 249.789062 212.675781 249.769531 213.800781 C 250.457031 213.683594 251.148438 213.613281 251.84375 213.597656 C 257.207031 213.476562 262.8125 216.019531 267.613281 220.769531 C 270.4375 223.5625 272.71875 226.75 274.925781 229.835938 C 275.753906 230.996094 276.613281 232.195312 277.472656 233.335938 C 280.210938 236.960938 282.875 240.667969 285.445312 244.25 C 291.984375 253.355469 298.15625 261.953125 303.722656 266.554688 C 304.003906 266.789062 304.234375 267.066406 304.40625 267.390625 C 304.578125 267.714844 304.679688 268.058594 304.714844 268.421875 C 304.75 268.789062 304.714844 269.144531 304.605469 269.496094 C 304.5 269.84375 304.328125 270.160156 304.09375 270.445312 C 303.859375 270.726562 303.582031 270.953125 303.257812 271.125 C 302.933594 271.296875 302.589844 271.398438 302.226562 271.429688 C 301.859375 271.464844 301.503906 271.429688 301.152344 271.320312 C 300.804688 271.210938 300.488281 271.039062 300.207031 270.804688 C 294.09375 265.746094 287.71875 256.867188 280.96875 247.46875 C 278.414062 243.910156 275.769531 240.230469 273.074219 236.65625 C 272.167969 235.460938 271.289062 234.230469 270.441406 233.042969 C 268.269531 230.011719 266.222656 227.148438 263.734375 224.691406 C 261.574219 222.554688 257.171875 218.980469 251.972656 219.109375 C 250.742188 219.136719 249.566406 219.402344 248.445312 219.90625 C 248.261719 220.019531 248.070312 220.113281 247.867188 220.183594 C 245.488281 221.453125 243.925781 223.65625 243.75 225.730469 C 243.722656 226.046875 243.644531 226.34375 243.515625 226.632812 C 243.386719 226.917969 243.210938 227.175781 242.992188 227.402344 C 242.777344 227.632812 242.527344 227.816406 242.246094 227.957031 C 241.964844 228.101562 241.667969 228.191406 241.355469 228.234375 C 241.042969 228.273438 240.734375 228.261719 240.425781 228.195312 C 240.117188 228.128906 239.828125 228.015625 239.5625 227.851562 C 239.292969 227.6875 239.058594 227.480469 238.859375 227.238281 C 238.664062 226.992188 238.511719 226.722656 238.402344 226.425781 C 236.898438 222.214844 232.234375 219.285156 227.785156 219.757812 C 223.335938 220.230469 219.390625 224.078125 218.808594 228.511719 C 218.738281 229.042969 218.527344 229.515625 218.183594 229.925781 C 217.835938 230.335938 217.410156 230.625 216.898438 230.785156 C 216.382812 230.945312 215.871094 230.953125 215.351562 230.8125 C 214.832031 230.671875 214.394531 230.402344 214.03125 230.007812 C 212.699219 228.542969 207.949219 222.484375 201.933594 214.8125 C 194.039062 204.75 184.214844 192.226562 179.515625 186.796875 C 176.867188 183.738281 171.730469 183.679688 169.246094 185.675781 C 168.527344 186.230469 167.9375 186.898438 167.476562 187.683594 C 167.015625 188.464844 166.71875 189.304688 166.582031 190.203125 Z M 186.460938 257.84375 C 183.105469 257.902344 179.753906 257.964844 176.414062 258.027344 C 162.695312 258.28125 148.507812 258.542969 133.273438 258.65625 C 132.839844 258.660156 132.394531 258.664062 131.933594 258.664062 C 127.800781 258.664062 122.621094 258.402344 118.507812 255.449219 C 111.804688 250.632812 111.382812 241.71875 111.511719 233.746094 C 111.769531 217.457031 111.523438 198.496094 111.265625 178.421875 C 110.894531 149.726562 110.511719 120.050781 111.492188 93.332031 C 111.738281 86.753906 113.046875 82.019531 115.492188 78.855469 C 119.304688 73.921875 124.578125 73.773438 128.816406 73.65625 C 129.320312 73.644531 129.820312 73.628906 130.3125 73.609375 C 130.347656 73.609375 130.386719 73.605469 130.425781 73.605469 C 140.515625 73.570312 153.277344 73.390625 165.621094 73.214844 C 186.054688 72.925781 205.351562 72.648438 214.035156 72.980469 C 217.296875 73.105469 221.359375 73.261719 224.828125 75.335938 C 231.691406 79.4375 232.597656 88.019531 232.582031 95.875 C 232.53125 119.160156 232.75 145.160156 232.957031 170.300781 C 233.082031 185.074219 233.207031 200.3125 233.28125 214.902344 C 236.089844 215.773438 238.492188 217.292969 240.488281 219.460938 C 241.515625 218.066406 242.761719 216.902344 244.21875 215.96875 C 244.246094 214.136719 244.277344 212.21875 244.320312 210.238281 C 244.632812 195.949219 244.449219 174.234375 244.273438 153.230469 C 244.113281 133.933594 243.960938 115.710938 244.160156 102.882812 C 244.398438 87.554688 243.882812 72.058594 238.523438 62.5625 C 232.339844 51.597656 224.15625 50.789062 196.714844 49.683594 C 195.457031 49.628906 194.160156 49.578125 192.824219 49.523438 C 170.292969 48.589844 157.332031 48.46875 140.09375 50.226562 C 126.636719 51.605469 113.902344 53.785156 106 65.164062 C 98.21875 76.359375 98.605469 93.804688 98.945312 109.199219 C 98.992188 111.277344 99.035156 113.242188 99.054688 115.171875 C 99.148438 123.054688 99.238281 131.121094 99.328125 139.183594 C 99.691406 171.691406 100.066406 205.304688 100.75 225.335938 C 100.832031 227.714844 100.855469 230.066406 100.878906 232.34375 C 100.992188 243.429688 101.09375 253.007812 107.183594 261.691406 C 115.167969 273.066406 128.914062 272.90625 151.6875 272.636719 C 156.152344 272.582031 160.769531 272.527344 165.808594 272.550781 C 173.507812 272.585938 180.066406 272.566406 185.734375 272.496094 C 185.453125 271.164062 185.257812 269.820312 185.15625 268.464844 C 184.875 264.835938 185.3125 261.292969 186.460938 257.839844 Z M 163.566406 199.734375 C 162.25 197.578125 161.425781 195.246094 161.101562 192.738281 C 159.246094 192.648438 157.253906 192.535156 154.996094 192.398438 C 145.917969 191.835938 135.769531 190.121094 129.375 181.652344 C 125.855469 176.992188 124.429688 170.96875 125.355469 164.691406 C 125.597656 162.976562 126.007812 161.300781 126.582031 159.664062 C 127.160156 158.03125 127.886719 156.46875 128.773438 154.976562 C 129.65625 153.488281 130.675781 152.097656 131.835938 150.808594 C 132.996094 149.519531 134.269531 148.359375 135.65625 147.320312 C 145.347656 140.234375 155.949219 138.761719 168.882812 138.734375 C 170.058594 138.730469 171.238281 138.722656 172.433594 138.714844 C 182.066406 138.640625 192.035156 138.5625 201.390625 141.742188 C 211.660156 145.234375 218.785156 154.261719 219.125 164.207031 C 219.449219 173.796875 214.933594 182.417969 207.34375 186.703125 C 201.984375 189.730469 196.105469 191.152344 190.867188 191.914062 C 195.621094 197.832031 201.324219 205.105469 206.273438 211.414062 C 209.582031 215.636719 212.78125 219.714844 215.058594 222.570312 C 217.492188 218.105469 222.070312 214.824219 227.199219 214.277344 C 227.386719 214.257812 227.574219 214.25 227.761719 214.238281 C 227.6875 199.867188 227.5625 184.882812 227.445312 170.347656 C 227.234375 145.191406 227.019531 119.175781 227.066406 95.863281 C 227.082031 89.558594 226.488281 82.753906 221.996094 80.070312 C 219.738281 78.71875 216.59375 78.597656 213.824219 78.492188 C 205.289062 78.167969 185.164062 78.453125 165.699219 78.730469 C 153.363281 78.90625 140.613281 79.085938 130.5 79.121094 C 129.996094 79.144531 129.484375 79.15625 128.96875 79.171875 C 125.265625 79.273438 122.070312 79.363281 119.855469 82.226562 C 118.160156 84.417969 117.203125 88.222656 117.007812 93.535156 C 116.027344 120.117188 116.410156 149.722656 116.78125 178.351562 C 117.039062 198.46875 117.285156 217.46875 117.027344 233.832031 C 116.914062 240.714844 117.1875 247.707031 121.726562 250.972656 C 124.601562 253.035156 128.640625 253.179688 133.230469 253.144531 C 148.4375 253.027344 162.609375 252.765625 176.3125 252.511719 C 180.535156 252.433594 184.761719 252.355469 189.019531 252.28125 C 190.128906 250.417969 191.402344 248.671875 192.839844 247.042969 C 182.738281 231.535156 171.148438 212.730469 163.566406 199.734375 Z M 174.652344 178.851562 C 176.386719 178.9375 178.039062 179.359375 179.605469 180.113281 C 181.171875 180.863281 182.53125 181.890625 183.6875 183.191406 C 184.558594 184.199219 185.601562 185.441406 186.769531 186.863281 C 192.238281 186.289062 198.894531 185.140625 204.628906 181.898438 C 210.425781 178.625 213.871094 171.917969 213.613281 164.390625 C 213.351562 156.726562 207.726562 149.722656 199.617188 146.964844 C 191.144531 144.085938 181.652344 144.160156 172.472656 144.230469 C 171.273438 144.238281 170.078125 144.246094 168.894531 144.25 C 157.039062 144.277344 147.402344 145.566406 138.910156 151.773438 C 134.648438 154.894531 131.617188 160.023438 130.808594 165.496094 C 130.101562 170.300781 131.15625 174.859375 133.773438 178.332031 C 138.824219 185.015625 147.507812 186.410156 155.335938 186.894531 C 157.6875 187.039062 159.746094 187.152344 161.660156 187.246094 C 162.464844 184.886719 163.84375 182.933594 165.792969 181.378906 C 168.074219 179.546875 171.304688 178.625 174.652344 178.851562 Z M 161.449219 165.070312 C 159.21875 169.113281 154.53125 171.160156 148.640625 170.777344 L 148.125 177.03125 C 148.097656 177.375 148.003906 177.703125 147.855469 178.015625 C 147.703125 178.324219 147.5 178.597656 147.246094 178.832031 C 146.992188 179.066406 146.703125 179.246094 146.382812 179.371094 C 146.058594 179.496094 145.726562 179.5625 145.378906 179.5625 C 145.304688 179.5625 145.226562 179.558594 145.148438 179.550781 C 144.785156 179.523438 144.441406 179.421875 144.113281 179.253906 C 143.789062 179.089844 143.507812 178.867188 143.273438 178.585938 C 143.035156 178.308594 142.863281 177.992188 142.75 177.644531 C 142.640625 177.296875 142.597656 176.941406 142.628906 176.578125 L 144.304688 156.316406 C 144.332031 156.019531 144.402344 155.730469 144.523438 155.453125 C 144.640625 155.175781 144.800781 154.925781 145.003906 154.703125 C 145.203125 154.476562 145.4375 154.292969 145.699219 154.144531 C 145.960938 153.996094 146.238281 153.894531 146.535156 153.835938 C 150.339844 153.109375 153.519531 153.085938 156.542969 153.761719 C 157.667969 154.023438 158.675781 154.519531 159.566406 155.261719 C 160.453125 156 161.128906 156.898438 161.589844 157.960938 C 162.636719 160.289062 162.582031 163.011719 161.449219 165.066406 Z M 156.558594 160.226562 C 156.339844 159.648438 155.929688 159.289062 155.332031 159.144531 C 153.441406 158.746094 151.539062 158.675781 149.621094 158.933594 L 149.097656 165.269531 C 152.167969 165.4375 155.324219 164.757812 156.621094 162.40625 C 156.921875 161.667969 156.902344 160.941406 156.558594 160.222656 Z M 172.402344 173.804688 C 171.179688 173.816406 169.933594 173.828125 168.726562 173.816406 C 168.316406 175.199219 167.917969 176.5625 167.554688 177.855469 C 167.457031 178.210938 167.292969 178.53125 167.066406 178.820312 C 166.839844 179.109375 166.570312 179.34375 166.25 179.523438 C 165.929688 179.703125 165.585938 179.8125 165.222656 179.859375 C 164.859375 179.902344 164.5 179.871094 164.144531 179.773438 C 163.792969 179.671875 163.472656 179.507812 163.183594 179.28125 C 162.898438 179.054688 162.664062 178.78125 162.488281 178.460938 C 162.308594 178.136719 162.199219 177.796875 162.15625 177.429688 C 162.117188 177.066406 162.144531 176.707031 162.246094 176.355469 C 162.996094 173.707031 163.863281 170.804688 164.703125 167.996094 C 165.539062 165.210938 166.402344 162.328125 167.136719 159.722656 C 167.421875 158.46875 167.945312 157.328125 168.703125 156.296875 C 170.042969 154.628906 172.195312 153.90625 174.058594 154.5 C 176.625 155.320312 177.378906 157.984375 177.664062 158.984375 C 178.429688 161.691406 179.324219 164.671875 180.1875 167.558594 C 181.054688 170.460938 181.953125 173.460938 182.730469 176.207031 C 182.832031 176.558594 182.859375 176.914062 182.816406 177.277344 C 182.773438 177.640625 182.664062 177.984375 182.484375 178.304688 C 182.308594 178.621094 182.074219 178.894531 181.789062 179.121094 C 181.5 179.347656 181.179688 179.511719 180.828125 179.613281 C 180.476562 179.710938 180.121094 179.738281 179.757812 179.699219 C 179.394531 179.65625 179.050781 179.542969 178.734375 179.367188 C 178.414062 179.1875 178.140625 178.957031 177.914062 178.667969 C 177.6875 178.382812 177.523438 178.0625 177.425781 177.710938 C 177.066406 176.453125 176.683594 175.132812 176.289062 173.792969 C 175.039062 173.773438 173.703125 173.789062 172.402344 173.800781 Z M 174.640625 168.269531 C 173.910156 165.824219 173.167969 163.335938 172.503906 161.007812 L 172.445312 161.222656 C 171.808594 163.472656 171.085938 165.90625 170.367188 168.304688 C 171.023438 168.304688 171.6875 168.296875 172.339844 168.289062 C 173.105469 168.277344 173.875 168.269531 174.644531 168.269531 Z M 187.78125 163.933594 C 188.851562 165.300781 189.957031 166.714844 191.160156 168.226562 C 191.257812 170.101562 191.269531 171.53125 191.28125 173.167969 C 191.289062 174.320312 191.296875 175.515625 191.335938 177.003906 C 191.34375 177.363281 191.421875 177.707031 191.5625 178.035156 C 191.707031 178.363281 191.910156 178.65625 192.164062 178.90625 C 192.421875 179.15625 192.71875 179.347656 193.050781 179.484375 C 193.382812 179.621094 193.730469 179.6875 194.089844 179.6875 L 194.164062 179.6875 C 194.527344 179.679688 194.878906 179.597656 195.210938 179.449219 C 195.546875 179.300781 195.839844 179.09375 196.089844 178.828125 C 196.34375 178.566406 196.535156 178.261719 196.664062 177.921875 C 196.796875 177.578125 196.855469 177.226562 196.847656 176.859375 C 196.808594 175.425781 196.800781 174.257812 196.792969 173.132812 C 196.785156 171.675781 196.773438 170.285156 196.699219 168.585938 C 197.886719 167.03125 199.070312 165.617188 200.316406 164.140625 C 201.691406 162.503906 203.113281 160.8125 204.53125 158.917969 C 204.753906 158.625 204.90625 158.304688 205 157.949219 C 205.089844 157.59375 205.109375 157.238281 205.058594 156.875 C 205.003906 156.511719 204.886719 156.175781 204.699219 155.859375 C 204.511719 155.542969 204.273438 155.277344 203.980469 155.058594 C 203.6875 154.839844 203.367188 154.683594 203.011719 154.59375 C 202.65625 154.503906 202.300781 154.484375 201.9375 154.535156 C 201.574219 154.585938 201.238281 154.707031 200.921875 154.890625 C 200.609375 155.078125 200.339844 155.316406 200.121094 155.609375 C 198.792969 157.382812 197.480469 158.941406 196.09375 160.589844 C 195.429688 161.382812 194.753906 162.1875 194.070312 163.019531 C 193.402344 162.171875 192.761719 161.347656 192.128906 160.539062 C 190.835938 158.886719 189.496094 157.171875 187.976562 155.28125 C 187.746094 154.996094 187.472656 154.765625 187.152344 154.589844 C 186.832031 154.414062 186.488281 154.308594 186.125 154.269531 C 185.761719 154.230469 185.402344 154.261719 185.050781 154.363281 C 184.703125 154.46875 184.382812 154.632812 184.097656 154.863281 C 183.8125 155.089844 183.582031 155.367188 183.410156 155.6875 C 183.234375 156.007812 183.125 156.351562 183.085938 156.714844 C 183.046875 157.078125 183.078125 157.433594 183.179688 157.785156 C 183.285156 158.136719 183.449219 158.453125 183.679688 158.738281 C 185.175781 160.597656 186.5 162.292969 187.78125 163.933594 Z M 187.78125 163.933594 "/></g></svg>